<svg id="e0gcZAMTePd1" xmlns="http://www.w3.org/2000/svg" xmlns:xlink="http://www.w3.org/1999/xlink" viewBox="0 0 200 200" shape-rendering="geometricPrecision" text-rendering="geometricPrecision"><line x1="-5.144374" y1="5.011767" x2="5.144374" y2="-5.011767" transform="translate(5.144374 5.011767)" fill="none" stroke="#64b4f6" stroke-width="3"/><line x1="-10.075835" y1="9.943229" x2="10.075836" y2="-9.943228" transform="translate(10.075836 9.943229)" fill="none" stroke="#64b4f6" stroke-width="3"/><line x1="-15.007297" y1="15.089101" x2="15.007297" y2="-15.089101" transform="translate(15.007297 15.089101)" fill="none" stroke="#64b4f6" stroke-width="3"/><line x1="-20.153169" y1="20.020563" x2="20.15317" y2="-20.020562" transform="translate(20.15317 20.020563)" fill="none" stroke="#64b4f6" stroke-width="3"/><line x1="-25.084631" y1="24.952024" x2="25.084631" y2="-24.952024" transform="translate(25.084631 24.952024)" fill="none" stroke="#64b4f6" stroke-width="3"/><line x1="-30.016092" y1="30.097897" x2="30.016093" y2="-30.097897" transform="translate(30.016093 30.097897)" fill="none" stroke="#64b4f6" stroke-width="3"/><line x1="-34.947554" y1="35.029359" x2="34.947554" y2="-35.029358" transform="translate(34.947554 35.029359)" fill="none" stroke="#64b4f6" stroke-width="3"/><line x1="-40.093427" y1="39.96082" x2="40.093427" y2="-39.960819" transform="translate(40.093427 39.96082)" fill="none" stroke="#64b4f6" stroke-width="3"/><line x1="-45.024888" y1="45.106693" x2="45.024889" y2="-45.106692" transform="translate(45.024889 45.106693)" fill="none" stroke="#64b4f6" stroke-width="3"/><line x1="-50" y1="50" x2="50" y2="-50" transform="translate(50 50)" fill="none" stroke="#64b4f6" stroke-width="3"/><line x1="-55.102222" y1="54.969616" x2="55.102223" y2="-54.969615" transform="translate(55.102223 54.969616)" fill="none" stroke="#64b4f6" stroke-width="3"/><line x1="-60.033684" y1="60.115488" x2="60.033684" y2="-60.115488" transform="translate(60.033684 60.115488)" fill="none" stroke="#64b4f6" stroke-width="3"/><line x1="-64.965145" y1="65.046949" x2="64.965145" y2="-65.046949" transform="translate(64.965146 65.04695)" fill="none" stroke="#64b4f6" stroke-width="3"/><line x1="-70.111018" y1="69.978411" x2="70.111019" y2="-69.97841" transform="translate(70.111019 69.978412)" fill="none" stroke="#64b4f6" stroke-width="3"/><line x1="-75.04248" y1="74.909873" x2="75.04248" y2="-74.909872" transform="translate(75.04248 74.909873)" fill="none" stroke="#64b4f6" stroke-width="3"/><line x1="-79.973941" y1="80.055746" x2="79.973941" y2="-80.055745" transform="translate(79.973941 80.055746)" fill="none" stroke="#64b4f6" stroke-width="3"/><line x1="-85.119814" y1="84.987207" x2="85.119814" y2="-84.987207" transform="translate(85.119814 84.987207)" fill="none" stroke="#64b4f6" stroke-width="3"/><line x1="-90.051275" y1="89.918668" x2="90.051276" y2="-89.918667" transform="translate(90.051276 89.91867)" fill="none" stroke="#64b4f6" stroke-width="3"/><line x1="-94.982737" y1="95.064541" x2="94.982737" y2="-95.064541" transform="translate(94.982737 95.064541)" fill="none" stroke="#64b4f6" stroke-width="3"/><line x1="-100" y1="100" x2="100" y2="-100" transform="translate(100 100)" fill="none" stroke="#64b4f6" stroke-width="3"/><line x1="-94.962082" y1="95.028385" x2="94.962082" y2="-95.028385" transform="translate(105.037918 104.971615)" fill="none" stroke="#64b4f6" stroke-width="3"/><line x1="-89.923415" y1="89.989718" x2="89.923415" y2="-89.989718" transform="translate(110.076585 110.010282)" fill="none" stroke="#64b4f6" stroke-width="3"/><line x1="-84.992703" y1="84.910899" x2="84.992703" y2="-84.910899" transform="translate(115.007297 115.089101)" fill="none" stroke="#64b4f6" stroke-width="3"/><line x1="-79.84683" y1="79.979437" x2="79.84683" y2="-79.979437" transform="translate(120.15317 120.020563)" fill="none" stroke="#64b4f6" stroke-width="3"/><line x1="-74.915369" y1="75.047976" x2="74.915369" y2="-75.047976" transform="translate(125.084631 124.952024)" fill="none" stroke="#64b4f6" stroke-width="3"/><line x1="-69.983158" y1="69.942256" x2="69.983158" y2="-69.942256" transform="translate(130.016842 130.057744)" fill="none" stroke="#64b4f6" stroke-width="3"/><line x1="-65.052446" y1="65.010794" x2="65.052446" y2="-65.010794" transform="translate(134.947554 134.989206)" fill="none" stroke="#64b4f6" stroke-width="3"/><line x1="-60.013029" y1="60.03918" x2="60.01303" y2="-60.03918" transform="translate(139.98697 139.96082)" fill="none" stroke="#64b4f6" stroke-width="3"/><line x1="-54.975111" y1="55.040665" x2="54.975111" y2="-55.040665" transform="translate(145.024889 144.959335)" fill="none" stroke="#64b4f6" stroke-width="3"/><line x1="-50" y1="50" x2="50" y2="-50" transform="translate(150 150)" fill="none" stroke="#64b4f6" stroke-width="3"/><line x1="-44.961708" y1="44.994859" x2="44.961707" y2="-44.994859" transform="translate(155.038293 155.005141)" fill="none" stroke="#64b4f6" stroke-width="3"/><line x1="-39.966316" y1="39.989719" x2="39.966316" y2="-39.989718" transform="translate(160.033684 160.010282)" fill="none" stroke="#64b4f6" stroke-width="3"/><line x1="-35.034854" y1="34.971128" x2="35.034854" y2="-34.971128" transform="translate(164.965146 165.028872)" fill="none" stroke="#64b4f6" stroke-width="3"/><line x1="-30.006515" y1="30.021589" x2="30.006515" y2="-30.021588" transform="translate(169.993485 169.978412)" fill="none" stroke="#64b4f6" stroke-width="3"/><line x1="-25" y1="25.090127" x2="25" y2="-25.090127" transform="translate(175 174.909873)" fill="none" stroke="#64b4f6" stroke-width="3"/><line x1="-19.983158" y1="19.994859" x2="19.983158" y2="-19.994859" transform="translate(180.016842 180.005141)" fill="none" stroke="#64b4f6" stroke-width="3"/><line x1="-15.003257" y1="15.010794" x2="15.003257" y2="-15.010794" transform="translate(184.996743 184.989206)" fill="none" stroke="#64b4f6" stroke-width="3"/><line x1="-9.991579" y1="9.99743" x2="9.991579" y2="-9.99743" transform="translate(190.008421 190.002571)" fill="none" stroke="#64b4f6" stroke-width="3"/><line x1="-5.017263" y1="4.998715" x2="5.017263" y2="-4.998715" transform="translate(194.982737 195.001286)" fill="none" stroke="#64b4f6" stroke-width="3"/></svg>
